<svg width="139" height="21" viewBox="0 0 139 21" fill="none" xmlns="http://www.w3.org/2000/svg">
<path d="M32.1898 7.7518H20.5369L20.1193 8.16496V20.9492H23.3251V16.1369L23.619 15.7779H32.1898C34.3572 15.7779 35.3544 15.0566 35.3544 13.2075V10.268C35.3544 8.46975 34.3572 7.7518 32.1898 7.7518ZM32.1898 12.476C32.1898 13.3498 31.731 13.492 30.6899 13.492H23.674L23.3388 13.133V10.4238L23.6328 10.0648H30.7119C31.7118 10.0648 32.2118 10.2172 32.2118 11.0808V12.4659L32.1898 12.476Z" fill="white"/>
<path d="M41.277 10.1664L44.068 15.1988L43.9004 15.6628H37.736L36.1537 18.074H45.3179L45.9826 18.538L47.4001 20.9492H51.1059L42.9856 7.59943" fill="white"/>
<path d="M78.0543 18.3822V14.7891L78.3894 14.4301H84.595V12.1713H74.7661V20.9492H89.2595V18.6904H78.4307" fill="white"/>
<path d="M89.3858 7.75522H74.7661V10.2206H89.3858V7.75522Z" fill="white"/>
<path d="M58.4816 10.1156H70.2691C70.1015 8.26658 69.1428 7.74506 66.8106 7.74506H58.3552C55.6906 7.74506 54.8555 8.36141 54.8555 10.8776V17.8675C54.8555 20.3329 55.6796 21 58.3552 21H66.8023C69.1758 21 70.0988 20.4345 70.1757 18.5346H58.4733L58.1382 18.1248V10.4238" fill="white"/>
<path d="M12.2051 12.8858H3.66729L3.41731 12.5269V10.268L3.66729 10.0106H15.2048L15.3697 9.55008C14.9961 8.31737 13.9549 7.70102 12.0732 7.70102H4.04089C1.37626 7.70102 0.543913 8.31737 0.543913 10.8336V12.3237C0.543913 14.7857 1.36802 15.4562 4.04089 15.4562H12.5814L12.8314 15.7644V18.135L12.6226 18.494H0.293933C0.293933 18.494 0 18.7005 0 18.7513C0.208775 20.4988 1.16749 20.9594 3.45852 20.9594H12.2051C14.8697 20.9594 15.746 20.343 15.746 17.8268V16.0184C15.746 13.5564 14.8697 12.8858 12.2051 12.8858Z" fill="white"/>
<path d="M98.591 7.70102H93.759L93.509 8.31737L98.841 13.1432C99.8409 12.4253 100.964 11.7073 102.137 10.986" fill="white"/>
<path d="M102.923 16.7397L107.629 20.9492H112.461L112.67 20.3837L105.673 14.0677C104.755 14.9415 103.797 15.8152 102.926 16.7397" fill="white"/>
<path d="M97.8824 20.9492H93.5091L93.1355 20.2313C96.0913 16.6855 109.343 1.60523 138.118 0C138.118 0 114.002 1.01597 97.8824 20.9492" fill="#B2B0B2"/>
</svg>
